<svg viewBox="0 0 50 76" xmlns="http://www.w3.org/2000/svg"><circle cx="25" cy="22" fill="#333" r="11"/><circle cx="14" cy="3" fill="#333" r="3"/><circle cx="25" cy="37" fill="#333" r="6"/><path d="m36 54a11.07 11.07 0 0 0 -11-8 11.07 11.07 0 0 0 -11 8c-2 8 4 20 11 22 7-2 13-14 11-22z" fill="#333"/><path d="m23 41h4v6h-4z" fill="#333"/><path d="m14 3s3 3 6 11" fill="none" stroke="#333" stroke-linecap="round" stroke-miterlimit="10"/><circle cx="35" cy="3" fill="#333" r="3"/><g fill="none" stroke-linecap="round" stroke-miterlimit="10"><path d="m35 3s-3 3-6 11" stroke="#333"/><path d="m29 36 13-5 4-14" stroke="#333"/><path d="m28 48 13 5 4 14" stroke="#333"/><path d="m22 48-13 5-4 14" stroke="#333"/><path d="m20 36-13-5-4-14" stroke="#333"/><path d="m29 40.5 12.5 2 8-8" stroke="#333"/><path d="m21 40.5-12.5 2-8-8" stroke="#333"/><path d="m19 58a23.53 23.53 0 0 0 2 8" opacity=".6" stroke="#fff" stroke-width="2"/></g></svg>