<svg viewBox="0 0 168 156" xmlns="http://www.w3.org/2000/svg" xmlns:xlink="http://www.w3.org/1999/xlink"><linearGradient id="a" gradientUnits="userSpaceOnUse" x1="45.2" x2="145.98" y1="34.26" y2="109.89"><stop offset="0" stop-color="#ffed82"/><stop offset="1" stop-color="#fab24f"/></linearGradient><linearGradient id="b" gradientUnits="userSpaceOnUse" x1="50.99" x2="114.56" y1="33.25" y2="90.81"><stop offset="0" stop-color="#ff8282"/><stop offset="1" stop-color="#fa5e4f"/></linearGradient><path d="m141.58 30.51c-28.13-28.22-70.91-31.19-95.58-6.63s-21.81 67.36 6.33 95.58 70.92 31.2 95.56 6.63 21.83-67.36-6.31-95.58zm-61.58 61.42c-10.72-10.75-11.8-27.05-2.41-36.41s25.66-8.23 36.41 2.48 11.8 27.06 2.41 36.42-25.72 8.26-36.41-2.49z" fill="#f9dee3"/><path d="m85.5 1.5a63 63 0 1 0 63 63 63 63 0 0 0 -63-63zm0 87a24 24 0 1 1 24-24 24 24 0 0 1 -24 24z" fill="url(#a)" stroke="#5e1b24" stroke-miterlimit="10" stroke-width="3"/><path d="m128 18a63 63 0 0 1 -89 89 63 63 0 1 0 89-89z" fill="#eda556"/><path d="m131.5 61.5c7-1 15.58-6.61 10.79-24.3a63 63 0 1 0 -71.75 88.5c6 .24 16-3.23 17-15.2s5-14 11-15 19.82-1.87 19-15c-1.04-16 6.96-18 13.96-19zm-46 27a24 24 0 1 1 24-24 24 24 0 0 1 -24 24z" fill="url(#b)" stroke="#5e1b24" stroke-miterlimit="10" stroke-width="3"/><path d="m52.51 25a52.87 52.87 0 0 1 26.05-11" fill="none" stroke="#fff" stroke-linecap="round" stroke-miterlimit="10" stroke-width="3"/><circle cx="85.5" cy="13.5" fill="#fff" r="1.5"/><circle cx="38" cy="64" fill="#b46fdd" r="4.5"/><circle cx="99" cy="31" fill="#74ceb4" r="6"/><circle cx="165" cy="153" fill="#74ceb4" r="3"/><circle cx="4.5" cy="124.5" fill="#efe073" r="4.5"/><circle cx="51" cy="98" fill="#efe073" r="7"/><g fill="#b53c4b"><circle cx="127" cy="46" r="6"/><circle cx="111.5" cy="16.5" r="2.5"/><circle cx="61.5" cy="36.5" r="2.5"/><circle cx="71" cy="91" r="2"/></g><path d="m87.5 90.5a24 24 0 0 0 15.94-41.94 24 24 0 0 1 -33.88 33.88 24 24 0 0 0 17.94 8.06z" fill="#ffb6c2"/><path d="m24.5 66.5a63 63 0 0 1 106.65-45.41 63 63 0 1 0 -89.23 88.91 62.74 62.74 0 0 1 -17.42-43.5z" fill="#ffb6c2"/><path d="m131.5 61.5c7-1 15.58-6.61 10.79-24.3a63 63 0 1 0 -71.75 88.5c6 .24 16-3.23 17-15.2s5-14 11-15 19.82-1.87 19-15c-1.04-16 6.96-18 13.96-19zm-46 27a24 24 0 1 1 24-24 24 24 0 0 1 -24 24z" fill="none" stroke="#5e1b24" stroke-miterlimit="10" stroke-width="3"/><circle cx="85.5" cy="64.5" fill="none" r="63" stroke="#5e1b24" stroke-miterlimit="10" stroke-width="3"/></svg>